<?xml version="1.0" encoding="UTF-8"?>
<svg width="40px" height="40px" viewBox="0 0 40 40" version="1.1" xmlns="http://www.w3.org/2000/svg" xmlns:xlink="http://www.w3.org/1999/xlink">
    <!-- Generator: Sketch 64 (93537) - https://sketch.com -->
    <title>Icon</title>
    <desc>Created with Sketch.</desc>
    <g id="Newsletter" stroke="none" stroke-width="1" fill="none" fill-rule="evenodd">
        <g id="Newsletter-V2" transform="translate(-120.000000, -400.000000)" fill-rule="nonzero">
            <g id="Block" transform="translate(0.000000, 212.000000)">
                <g id="Content" transform="translate(60.000000, 60.000000)">
                    <g id="Icon" transform="translate(60.000000, 128.000000)">
                        <path d="M18.9530771,24.0821226 L18.845789,24.309171 C17.887538,26.4677008 18.3025104,28.9652519 19.88056,30.6832215 L28.5650826,39.7433304 C28.8931322,40.0855565 29.4402012,40.0855565 29.7682507,39.7433304 L38.2915841,30.8516637 C40.0676394,29.0758719 40.5108495,26.3452514 39.3804839,24.082578 L39.2417841,23.8228267 C38.9705886,23.3465853 38.6508747,22.9273634 38.2792557,22.5557443 L38.095273,22.3792914 C35.7908559,20.2618555 32.2041488,20.3206732 29.9690777,22.5557443 L29.166,23.358 L28.3642557,22.5557443 C27.9905086,22.1819973 27.5702236,21.8611739 27.1148336,21.6023362 L26.8374785,21.4545443 C23.9339572,20.0037547 20.405447,21.1793244 18.9530771,24.0821226 Z M26.0925215,22.9454557 C26.4950984,23.146053 26.8638242,23.4123355 27.1857443,23.7342557 L28.577411,25.1259223 C28.9028479,25.4513592 29.4304854,25.4513592 29.7559223,25.1259223 L31.147589,23.7342557 C32.7921105,22.0897341 35.457614,22.0897341 37.100495,23.7340062 C37.3671368,24.0006481 37.5962945,24.3011289 37.7831992,24.6289385 L37.9003455,24.8483538 L37.9944248,25.0501637 C38.6418563,26.5425949 38.3564353,28.2978193 37.2558638,29.5221547 L29.166,37.962 L21.2449174,29.6983363 C20.0003047,28.45346 19.6560395,26.5914814 20.3612447,25.0025759 L20.452106,24.8103466 C21.4841952,22.7480573 24.011994,21.9058878 26.0925215,22.9454557 Z" id="Shape-2" fill="#FFA897"></path>
                        <path d="M33.3333333,1.77635684e-15 C35.1122294,1.77635684e-15 36.5667412,1.3952153 36.6617321,3.15050918 L36.6666667,3.33333333 L36.6666667,17.5 C36.6666667,17.9602373 36.2935706,18.3333333 35.8333333,18.3333333 C35.4084989,18.3333333 35.057915,18.015429 35.0064928,17.6045316 L35,17.5 L35,3.33333333 C35,3.14785253 34.9696254,2.96940144 34.9135839,2.80268785 L18.8539283,15.6507114 C18.5833907,15.8671522 18.2116181,15.8912012 17.9185838,15.7228583 L17.8127384,15.6507114 L1.75295128,2.80307928 C1.71160954,2.92616545 1.68425775,3.05564631 1.67278993,3.18962783 L1.66666667,3.33333333 L1.66666667,21.6666667 C1.66666667,22.5380208 2.33701814,23.254233 3.18962783,23.3272101 L3.33333333,23.3333333 L15.8333333,23.3333333 C16.2935706,23.3333333 16.6666667,23.7064294 16.6666667,24.1666667 C16.6666667,24.5915011 16.3487623,24.942085 15.9378649,24.9935072 L15.8333333,25 L3.33333333,25 C1.55443728,25 0.0999254486,23.6047847 0.00493454404,21.8494908 L7.63833441e-13,21.6666667 L7.63833441e-13,3.33333333 C7.63833441e-13,1.55443728 1.3952153,0.0999254486 3.15050918,0.00493454404 L3.33333333,1.77635684e-15 L33.3333333,1.77635684e-15 Z M33.3333333,1.66666667 L3.33333333,1.66666667 C3.23151373,1.66666667 3.1318125,1.67581993 3.03500842,1.69334768 L18.333,13.933 L33.6316034,1.69333774 C33.580841,1.68414827 33.5292821,1.67726156 33.4770388,1.67278993 L33.3333333,1.66666667 Z" id="Shape-1" fill="#323232"></path>
                    </g>
                </g>
            </g>
        </g>
    </g>
</svg>